<mxfile host="app.diagrams.net" modified="2023-10-29T17:32:35.199Z" agent="Mozilla/5.0 (X11; Linux x86_64) AppleWebKit/537.36 (KHTML, like Gecko) Chrome/118.0.0.0 Safari/537.36" etag="qDOCJWz_5nkriYA2_YZ0" version="22.0.8" type="github">
  <diagram name="Page-1" id="NzfE7nQFHrgCrI4fj2pQ">
    <mxGraphModel dx="1674" dy="771" grid="1" gridSize="10" guides="1" tooltips="1" connect="1" arrows="1" fold="1" page="1" pageScale="1" pageWidth="827" pageHeight="1169" math="0" shadow="0">
      <root>
        <mxCell id="0" />
        <mxCell id="1" parent="0" />
        <mxCell id="g2toKs2g9XWiXwlAe_JF-11" value="" style="edgeStyle=orthogonalEdgeStyle;rounded=0;orthogonalLoop=1;jettySize=auto;html=1;" edge="1" parent="1" source="6S4fCYAqmIFdcXz1XgDX-30" target="6S4fCYAqmIFdcXz1XgDX-36">
          <mxGeometry relative="1" as="geometry" />
        </mxCell>
        <mxCell id="6S4fCYAqmIFdcXz1XgDX-30" value="" style="whiteSpace=wrap;html=1;verticalAlign=top;fillColor=#fff2cc;dashed=0;strokeColor=#d6b656;" parent="1" vertex="1">
          <mxGeometry x="110" y="70" width="640" height="691" as="geometry" />
        </mxCell>
        <mxCell id="6S4fCYAqmIFdcXz1XgDX-1" value="" style="verticalLabelPosition=bottom;html=1;verticalAlign=top;align=center;strokeColor=none;fillColor=#00BEF2;shape=mxgraph.azure.computer;pointerEvents=1;" parent="1" vertex="1">
          <mxGeometry x="305" y="410" width="50" height="45" as="geometry" />
        </mxCell>
        <mxCell id="6S4fCYAqmIFdcXz1XgDX-6" style="edgeStyle=orthogonalEdgeStyle;rounded=0;orthogonalLoop=1;jettySize=auto;html=1;exitX=1;exitY=0.5;exitDx=0;exitDy=0;" parent="1" source="6S4fCYAqmIFdcXz1XgDX-2" target="6S4fCYAqmIFdcXz1XgDX-3" edge="1">
          <mxGeometry relative="1" as="geometry" />
        </mxCell>
        <mxCell id="6S4fCYAqmIFdcXz1XgDX-2" value="Packet Tracer" style="rounded=1;whiteSpace=wrap;html=1;" parent="1" vertex="1">
          <mxGeometry x="270" y="270" width="120" height="60" as="geometry" />
        </mxCell>
        <mxCell id="6S4fCYAqmIFdcXz1XgDX-3" value="ML Model" style="ellipse;whiteSpace=wrap;html=1;aspect=fixed;" parent="1" vertex="1">
          <mxGeometry x="580" y="260" width="80" height="80" as="geometry" />
        </mxCell>
        <mxCell id="6S4fCYAqmIFdcXz1XgDX-4" value="packetId:Malicious / packetId:benign / packetId:outlier" style="html=1;shape=mxgraph.sysml.callBehAct;whiteSpace=wrap;align=center;" parent="1" vertex="1">
          <mxGeometry x="540" y="402.5" width="160" height="80" as="geometry" />
        </mxCell>
        <mxCell id="6S4fCYAqmIFdcXz1XgDX-5" style="edgeStyle=orthogonalEdgeStyle;rounded=0;orthogonalLoop=1;jettySize=auto;html=1;exitX=0.5;exitY=1;exitDx=0;exitDy=0;entryX=0.5;entryY=0;entryDx=0;entryDy=0;entryPerimeter=0;" parent="1" source="6S4fCYAqmIFdcXz1XgDX-3" target="6S4fCYAqmIFdcXz1XgDX-4" edge="1">
          <mxGeometry relative="1" as="geometry" />
        </mxCell>
        <mxCell id="6S4fCYAqmIFdcXz1XgDX-8" value="" style="html=1;labelBackgroundColor=#ffffff;startArrow=none;startFill=0;startSize=6;endArrow=classic;endFill=1;endSize=6;jettySize=auto;orthogonalLoop=1;strokeWidth=1;dashed=1;fontSize=14;rounded=0;exitX=0.5;exitY=0;exitDx=0;exitDy=0;exitPerimeter=0;" parent="1" source="6S4fCYAqmIFdcXz1XgDX-1" edge="1">
          <mxGeometry width="60" height="60" relative="1" as="geometry">
            <mxPoint x="329.5" y="420" as="sourcePoint" />
            <mxPoint x="329.5" y="330" as="targetPoint" />
          </mxGeometry>
        </mxCell>
        <mxCell id="6S4fCYAqmIFdcXz1XgDX-12" style="edgeStyle=orthogonalEdgeStyle;rounded=0;orthogonalLoop=1;jettySize=auto;html=1;" parent="1" source="6S4fCYAqmIFdcXz1XgDX-9" target="6S4fCYAqmIFdcXz1XgDX-13" edge="1">
          <mxGeometry relative="1" as="geometry">
            <mxPoint x="220" y="585" as="targetPoint" />
          </mxGeometry>
        </mxCell>
        <mxCell id="6S4fCYAqmIFdcXz1XgDX-17" style="edgeStyle=orthogonalEdgeStyle;rounded=0;orthogonalLoop=1;jettySize=auto;html=1;entryX=0.5;entryY=0.209;entryDx=0;entryDy=0;entryPerimeter=0;" parent="1" source="6S4fCYAqmIFdcXz1XgDX-9" target="6S4fCYAqmIFdcXz1XgDX-36" edge="1">
          <mxGeometry relative="1" as="geometry">
            <mxPoint x="430" y="800" as="targetPoint" />
          </mxGeometry>
        </mxCell>
        <mxCell id="6S4fCYAqmIFdcXz1XgDX-9" value="Archive" style="shape=cylinder3;whiteSpace=wrap;html=1;boundedLbl=1;backgroundOutline=1;size=15;" parent="1" vertex="1">
          <mxGeometry x="380" y="545" width="100" height="80" as="geometry" />
        </mxCell>
        <mxCell id="6S4fCYAqmIFdcXz1XgDX-10" style="edgeStyle=orthogonalEdgeStyle;rounded=0;orthogonalLoop=1;jettySize=auto;html=1;exitX=0.5;exitY=1;exitDx=0;exitDy=0;exitPerimeter=0;entryX=0.5;entryY=0;entryDx=0;entryDy=0;entryPerimeter=0;" parent="1" source="6S4fCYAqmIFdcXz1XgDX-4" target="6S4fCYAqmIFdcXz1XgDX-9" edge="1">
          <mxGeometry relative="1" as="geometry" />
        </mxCell>
        <mxCell id="6S4fCYAqmIFdcXz1XgDX-13" value="Model Retraining" style="ellipse;shape=cloud;whiteSpace=wrap;html=1;" parent="1" vertex="1">
          <mxGeometry x="210" y="545" width="120" height="80" as="geometry" />
        </mxCell>
        <mxCell id="6S4fCYAqmIFdcXz1XgDX-15" style="edgeStyle=orthogonalEdgeStyle;rounded=0;orthogonalLoop=1;jettySize=auto;html=1;entryX=0;entryY=0.5;entryDx=0;entryDy=0;entryPerimeter=0;" parent="1" source="6S4fCYAqmIFdcXz1XgDX-14" target="6S4fCYAqmIFdcXz1XgDX-1" edge="1">
          <mxGeometry relative="1" as="geometry">
            <mxPoint x="290" y="479" as="targetPoint" />
          </mxGeometry>
        </mxCell>
        <mxCell id="6S4fCYAqmIFdcXz1XgDX-14" value="" style="sketch=0;outlineConnect=0;fontColor=#232F3E;gradientColor=none;fillColor=#8C4FFF;strokeColor=none;dashed=0;verticalLabelPosition=bottom;verticalAlign=top;align=center;html=1;fontSize=12;fontStyle=0;aspect=fixed;pointerEvents=1;shape=mxgraph.aws4.customer_gateway;" parent="1" vertex="1">
          <mxGeometry x="220" y="413.5" width="38" height="38" as="geometry" />
        </mxCell>
        <mxCell id="6S4fCYAqmIFdcXz1XgDX-19" value="" style="outlineConnect=0;dashed=0;verticalLabelPosition=bottom;verticalAlign=top;align=center;html=1;shape=mxgraph.aws3.vpc;fillColor=#F58536;gradientColor=none;" parent="1" vertex="1">
          <mxGeometry x="125" y="80" width="55" height="60" as="geometry" />
        </mxCell>
        <mxCell id="6S4fCYAqmIFdcXz1XgDX-26" value="VPC" style="text;html=1;strokeColor=none;fillColor=none;align=center;verticalAlign=middle;whiteSpace=wrap;rounded=0;" parent="1" vertex="1">
          <mxGeometry x="170" y="95" width="60" height="30" as="geometry" />
        </mxCell>
        <mxCell id="6S4fCYAqmIFdcXz1XgDX-35" style="edgeStyle=orthogonalEdgeStyle;rounded=0;orthogonalLoop=1;jettySize=auto;html=1;entryX=0.5;entryY=0;entryDx=0;entryDy=0;" parent="1" source="6S4fCYAqmIFdcXz1XgDX-13" target="6S4fCYAqmIFdcXz1XgDX-3" edge="1">
          <mxGeometry relative="1" as="geometry">
            <Array as="points">
              <mxPoint x="190" y="585" />
              <mxPoint x="190" y="240" />
              <mxPoint x="620" y="240" />
            </Array>
          </mxGeometry>
        </mxCell>
        <mxCell id="g2toKs2g9XWiXwlAe_JF-10" style="edgeStyle=orthogonalEdgeStyle;rounded=0;orthogonalLoop=1;jettySize=auto;html=1;entryX=0.5;entryY=0;entryDx=0;entryDy=0;" edge="1" parent="1" source="6S4fCYAqmIFdcXz1XgDX-36">
          <mxGeometry relative="1" as="geometry">
            <mxPoint x="430" y="960" as="targetPoint" />
          </mxGeometry>
        </mxCell>
        <mxCell id="6S4fCYAqmIFdcXz1XgDX-36" value="" style="whiteSpace=wrap;html=1;verticalAlign=top;fillColor=#d5e8d4;dashed=0;strokeColor=#82b366;" parent="1" vertex="1">
          <mxGeometry x="110" y="790" width="640" height="670" as="geometry" />
        </mxCell>
        <mxCell id="6S4fCYAqmIFdcXz1XgDX-38" value="" style="outlineConnect=0;dashed=0;verticalLabelPosition=bottom;verticalAlign=top;align=center;html=1;shape=mxgraph.aws3.vpc;fillColor=#F58534;gradientColor=none;" parent="1" vertex="1">
          <mxGeometry x="130" y="820" width="50" height="60" as="geometry" />
        </mxCell>
        <mxCell id="6S4fCYAqmIFdcXz1XgDX-39" value="VPC" style="text;html=1;strokeColor=none;fillColor=none;align=center;verticalAlign=middle;whiteSpace=wrap;rounded=0;" parent="1" vertex="1">
          <mxGeometry x="125" y="880" width="60" height="30" as="geometry" />
        </mxCell>
        <mxCell id="g2toKs2g9XWiXwlAe_JF-24" style="edgeStyle=orthogonalEdgeStyle;rounded=0;orthogonalLoop=1;jettySize=auto;html=1;entryX=1;entryY=0.5;entryDx=0;entryDy=0;" edge="1" parent="1" source="6S4fCYAqmIFdcXz1XgDX-43" target="g2toKs2g9XWiXwlAe_JF-23">
          <mxGeometry relative="1" as="geometry" />
        </mxCell>
        <mxCell id="6S4fCYAqmIFdcXz1XgDX-43" value="Admin UI Dashboard" style="shape=ext;double=1;rounded=0;whiteSpace=wrap;html=1;" parent="1" vertex="1">
          <mxGeometry x="380" y="1110" width="100" height="80" as="geometry" />
        </mxCell>
        <mxCell id="6S4fCYAqmIFdcXz1XgDX-48" value="Malicious Packets" style="html=1;whiteSpace=wrap;aspect=fixed;shape=isoRectangle;" parent="1" vertex="1">
          <mxGeometry x="355" y="640" width="150" height="90" as="geometry" />
        </mxCell>
        <mxCell id="6S4fCYAqmIFdcXz1XgDX-49" value="" style="sketch=0;aspect=fixed;pointerEvents=1;shadow=0;dashed=0;html=1;strokeColor=none;labelPosition=center;verticalLabelPosition=bottom;verticalAlign=top;align=center;fillColor=#00188D;shape=mxgraph.mscae.enterprise.firewall" parent="1" vertex="1">
          <mxGeometry x="125" y="663" width="50" height="44" as="geometry" />
        </mxCell>
        <mxCell id="6S4fCYAqmIFdcXz1XgDX-51" value="" style="html=1;labelBackgroundColor=#ffffff;startArrow=none;startFill=0;startSize=6;endArrow=classic;endFill=1;endSize=6;jettySize=auto;orthogonalLoop=1;strokeWidth=1;dashed=1;fontSize=14;rounded=0;exitX=0.5;exitY=0;exitDx=0;exitDy=0;exitPerimeter=0;" parent="1" source="6S4fCYAqmIFdcXz1XgDX-49" edge="1">
          <mxGeometry width="60" height="60" relative="1" as="geometry">
            <mxPoint x="150" y="220" as="sourcePoint" />
            <mxPoint x="149.5" y="140" as="targetPoint" />
          </mxGeometry>
        </mxCell>
        <mxCell id="g2toKs2g9XWiXwlAe_JF-1" value="Traffic Log" style="shape=cylinder3;whiteSpace=wrap;html=1;boundedLbl=1;backgroundOutline=1;size=15;" vertex="1" parent="1">
          <mxGeometry x="580" y="645" width="60" height="80" as="geometry" />
        </mxCell>
        <mxCell id="g2toKs2g9XWiXwlAe_JF-3" style="edgeStyle=orthogonalEdgeStyle;rounded=0;orthogonalLoop=1;jettySize=auto;html=1;entryX=0;entryY=0.5;entryDx=0;entryDy=0;entryPerimeter=0;" edge="1" parent="1" source="6S4fCYAqmIFdcXz1XgDX-48" target="g2toKs2g9XWiXwlAe_JF-1">
          <mxGeometry relative="1" as="geometry" />
        </mxCell>
        <mxCell id="g2toKs2g9XWiXwlAe_JF-4" style="edgeStyle=orthogonalEdgeStyle;rounded=0;orthogonalLoop=1;jettySize=auto;html=1;entryX=1;entryY=0.5;entryDx=0;entryDy=0;entryPerimeter=0;" edge="1" parent="1" source="g2toKs2g9XWiXwlAe_JF-6" target="6S4fCYAqmIFdcXz1XgDX-49">
          <mxGeometry relative="1" as="geometry" />
        </mxCell>
        <mxCell id="g2toKs2g9XWiXwlAe_JF-5" value="" style="sketch=0;points=[[0,0,0],[0.25,0,0],[0.5,0,0],[0.75,0,0],[1,0,0],[0,1,0],[0.25,1,0],[0.5,1,0],[0.75,1,0],[1,1,0],[0,0.25,0],[0,0.5,0],[0,0.75,0],[1,0.25,0],[1,0.5,0],[1,0.75,0]];outlineConnect=0;fontColor=#232F3E;fillColor=#C925D1;strokeColor=#ffffff;dashed=0;verticalLabelPosition=bottom;verticalAlign=top;align=center;html=1;fontSize=12;fontStyle=0;aspect=fixed;shape=mxgraph.aws4.resourceIcon;resIcon=mxgraph.aws4.managed_apache_cassandra_service;" vertex="1" parent="1">
          <mxGeometry x="585" y="590" width="50" height="50" as="geometry" />
        </mxCell>
        <mxCell id="g2toKs2g9XWiXwlAe_JF-7" value="" style="edgeStyle=orthogonalEdgeStyle;rounded=0;orthogonalLoop=1;jettySize=auto;html=1;entryX=1;entryY=0.5;entryDx=0;entryDy=0;entryPerimeter=0;" edge="1" parent="1" source="6S4fCYAqmIFdcXz1XgDX-48" target="g2toKs2g9XWiXwlAe_JF-6">
          <mxGeometry relative="1" as="geometry">
            <mxPoint x="355" y="685" as="sourcePoint" />
            <mxPoint x="175" y="685" as="targetPoint" />
          </mxGeometry>
        </mxCell>
        <mxCell id="g2toKs2g9XWiXwlAe_JF-6" value="Data Processing" style="rounded=0;whiteSpace=wrap;html=1;" vertex="1" parent="1">
          <mxGeometry x="210" y="655" width="120" height="60" as="geometry" />
        </mxCell>
        <mxCell id="g2toKs2g9XWiXwlAe_JF-13" value="" style="edgeStyle=orthogonalEdgeStyle;rounded=0;orthogonalLoop=1;jettySize=auto;html=1;entryX=0.5;entryY=0;entryDx=0;entryDy=0;" edge="1" parent="1" source="6S4fCYAqmIFdcXz1XgDX-36" target="6S4fCYAqmIFdcXz1XgDX-55">
          <mxGeometry relative="1" as="geometry">
            <mxPoint x="430" y="790" as="sourcePoint" />
            <mxPoint x="430" y="960" as="targetPoint" />
          </mxGeometry>
        </mxCell>
        <mxCell id="g2toKs2g9XWiXwlAe_JF-19" style="edgeStyle=orthogonalEdgeStyle;rounded=0;orthogonalLoop=1;jettySize=auto;html=1;entryX=0.5;entryY=0;entryDx=0;entryDy=0;" edge="1" parent="1" source="6S4fCYAqmIFdcXz1XgDX-55" target="6S4fCYAqmIFdcXz1XgDX-43">
          <mxGeometry relative="1" as="geometry" />
        </mxCell>
        <mxCell id="6S4fCYAqmIFdcXz1XgDX-55" value="Central Deployment" style="ellipse;whiteSpace=wrap;html=1;aspect=fixed;" parent="1" vertex="1">
          <mxGeometry x="390" y="855" width="80" height="80" as="geometry" />
        </mxCell>
        <mxCell id="g2toKs2g9XWiXwlAe_JF-14" value="Deployment 2" style="ellipse;whiteSpace=wrap;html=1;aspect=fixed;" vertex="1" parent="1">
          <mxGeometry x="600" y="850" width="80" height="80" as="geometry" />
        </mxCell>
        <mxCell id="g2toKs2g9XWiXwlAe_JF-17" value="" style="endArrow=none;dashed=1;html=1;rounded=0;entryX=0;entryY=0.5;entryDx=0;entryDy=0;" edge="1" parent="1" target="g2toKs2g9XWiXwlAe_JF-14">
          <mxGeometry width="50" height="50" relative="1" as="geometry">
            <mxPoint x="470" y="890" as="sourcePoint" />
            <mxPoint x="520" y="840" as="targetPoint" />
          </mxGeometry>
        </mxCell>
        <mxCell id="g2toKs2g9XWiXwlAe_JF-18" value="GraphQL" style="text;html=1;strokeColor=none;fillColor=none;align=center;verticalAlign=middle;whiteSpace=wrap;rounded=0;" vertex="1" parent="1">
          <mxGeometry x="525" y="860" width="60" height="30" as="geometry" />
        </mxCell>
        <mxCell id="g2toKs2g9XWiXwlAe_JF-20" value="Deployment 1" style="ellipse;whiteSpace=wrap;html=1;aspect=fixed;" vertex="1" parent="1">
          <mxGeometry x="199" y="850" width="80" height="80" as="geometry" />
        </mxCell>
        <mxCell id="g2toKs2g9XWiXwlAe_JF-21" value="" style="endArrow=none;dashed=1;html=1;rounded=0;exitX=1;exitY=0.5;exitDx=0;exitDy=0;entryX=0.013;entryY=0.4;entryDx=0;entryDy=0;entryPerimeter=0;" edge="1" parent="1" source="g2toKs2g9XWiXwlAe_JF-20" target="6S4fCYAqmIFdcXz1XgDX-55">
          <mxGeometry width="50" height="50" relative="1" as="geometry">
            <mxPoint x="240" y="890" as="sourcePoint" />
            <mxPoint x="380" y="890" as="targetPoint" />
          </mxGeometry>
        </mxCell>
        <mxCell id="g2toKs2g9XWiXwlAe_JF-22" value="GraphQL" style="text;html=1;strokeColor=none;fillColor=none;align=center;verticalAlign=middle;whiteSpace=wrap;rounded=0;" vertex="1" parent="1">
          <mxGeometry x="300" y="860" width="60" height="30" as="geometry" />
        </mxCell>
        <mxCell id="g2toKs2g9XWiXwlAe_JF-23" value="Red Team IoA" style="rounded=1;whiteSpace=wrap;html=1;" vertex="1" parent="1">
          <mxGeometry x="170" y="1120" width="120" height="60" as="geometry" />
        </mxCell>
        <mxCell id="g2toKs2g9XWiXwlAe_JF-25" value="Blue Team IoA" style="rounded=1;whiteSpace=wrap;html=1;" vertex="1" parent="1">
          <mxGeometry x="570" y="1120" width="120" height="60" as="geometry" />
        </mxCell>
        <mxCell id="g2toKs2g9XWiXwlAe_JF-26" style="edgeStyle=orthogonalEdgeStyle;rounded=0;orthogonalLoop=1;jettySize=auto;html=1;entryX=1;entryY=0.5;entryDx=0;entryDy=0;" edge="1" parent="1">
          <mxGeometry relative="1" as="geometry">
            <mxPoint x="480" y="1149.5" as="sourcePoint" />
            <mxPoint x="570" y="1149.5" as="targetPoint" />
          </mxGeometry>
        </mxCell>
        <mxCell id="g2toKs2g9XWiXwlAe_JF-27" style="edgeStyle=orthogonalEdgeStyle;rounded=0;orthogonalLoop=1;jettySize=auto;html=1;entryX=0.988;entryY=0.675;entryDx=0;entryDy=0;entryPerimeter=0;" edge="1" parent="1" source="g2toKs2g9XWiXwlAe_JF-25" target="6S4fCYAqmIFdcXz1XgDX-55">
          <mxGeometry relative="1" as="geometry">
            <Array as="points">
              <mxPoint x="630" y="1100" />
              <mxPoint x="520" y="1100" />
              <mxPoint x="520" y="909" />
            </Array>
          </mxGeometry>
        </mxCell>
        <mxCell id="g2toKs2g9XWiXwlAe_JF-28" style="edgeStyle=orthogonalEdgeStyle;rounded=0;orthogonalLoop=1;jettySize=auto;html=1;entryX=0.013;entryY=0.713;entryDx=0;entryDy=0;entryPerimeter=0;" edge="1" parent="1" source="g2toKs2g9XWiXwlAe_JF-23" target="6S4fCYAqmIFdcXz1XgDX-55">
          <mxGeometry relative="1" as="geometry">
            <Array as="points">
              <mxPoint x="230" y="1100" />
              <mxPoint x="340" y="1100" />
              <mxPoint x="340" y="912" />
            </Array>
          </mxGeometry>
        </mxCell>
      </root>
    </mxGraphModel>
  </diagram>
</mxfile>
